<?xml version="1.0" standalone="no"?>
<!DOCTYPE svg PUBLIC "-//W3C//DTD SVG 20010904//EN"
 "http://www.w3.org/TR/2001/REC-SVG-20010904/DTD/svg10.dtd">
<svg version="1.0" xmlns="http://www.w3.org/2000/svg"
 width="200.000000pt" height="200.000000pt" viewBox="0 0 200.000000 200.000000"
 preserveAspectRatio="xMidYMid meet">
<metadata>
Created by potrace 1.11, written by Peter Selinger 2001-2013
</metadata>
<g transform="translate(0.000000,200.000000) scale(0.100000,-0.100000)"
fill="#000000" stroke="none">
<path d="M826 1935 c-91 -28 -98 -33 -186 -110 -36 -31 -87 -72 -115 -91 -79
-54 -114 -132 -128 -284 -9 -99 -8 -125 7 -185 10 -38 17 -79 16 -90 -7 -88
10 -141 87 -280 6 -11 16 -32 22 -48 7 -19 20 -29 40 -33 26 -5 31 -12 40 -53
5 -26 13 -88 17 -138 l7 -91 -63 -73 c-127 -148 -176 -196 -232 -227 -31 -16
-94 -53 -140 -80 -45 -28 -109 -63 -140 -78 -46 -22 -58 -33 -58 -51 l0 -23
351 0 c330 0 351 1 345 18 -6 16 -5 16 8 0 16 -22 30 -24 23 -3 -4 8 -2 17 3
20 15 9 12 27 -2 19 -7 -4 -10 -3 -5 1 4 5 0 20 -10 34 -14 22 -14 24 -1 13
11 -9 18 -10 23 -2 3 6 11 8 16 4 5 -3 7 -10 3 -15 -3 -5 -10 -6 -16 -3 -6 4
-8 1 -6 -7 3 -8 11 -13 18 -11 10 2 9 -3 -2 -20 -20 -31 -12 -48 23 -48 30 0
36 9 19 26 -7 7 -6 11 4 11 8 0 15 -3 14 -6 -2 -26 6 -30 57 -28 30 1 55 6 55
11 0 5 8 2 17 -5 14 -12 14 -10 -1 14 -10 15 -23 27 -28 27 -6 0 -4 -8 3 -17
10 -11 10 -14 2 -9 -8 4 -13 2 -13 -6 0 -10 -2 -10 -9 1 -5 8 -7 21 -3 29 4
11 1 14 -11 9 -11 -4 -23 3 -37 23 -18 26 -18 28 -3 25 10 -1 17 -9 15 -18 -1
-8 2 -18 8 -22 6 -3 7 0 4 9 -3 9 -1 16 6 16 6 0 8 5 4 12 -4 7 -3 8 4 4 6 -4
9 -13 6 -20 -3 -8 0 -17 7 -22 7 -4 10 -3 5 4 -3 6 -2 13 4 17 6 4 7 11 4 17
-4 6 2 5 15 -2 12 -6 18 -16 15 -22 -5 -7 -2 -9 8 -5 9 3 21 0 27 -6 15 -15
14 -30 -1 -21 -8 4 -9 3 -5 -2 5 -5 16 -9 25 -9 10 0 16 -7 16 -17 -2 -16 34
-17 497 -18 l499 -1 0 130 0 130 -57 10 c-32 6 -139 39 -238 72 -99 34 -202
67 -228 73 -41 10 -53 19 -73 51 -31 50 -28 104 11 194 15 36 30 91 33 123 3
42 10 61 23 68 9 6 23 27 30 47 7 21 20 49 30 63 10 14 20 41 22 61 2 19 9 45
16 56 11 22 15 105 5 115 -3 4 -6 69 -8 145 -2 134 -3 142 -34 206 -18 36 -32
73 -32 82 0 31 -50 118 -93 161 -23 23 -80 66 -127 95 -76 46 -94 53 -165 61
-175 20 -206 19 -289 -7z m372 -380 c14 -5 22 -3 22 4 0 6 11 11 25 11 27 0
46 -27 52 -74 2 -17 8 -33 14 -37 8 -5 8 -13 -1 -28 -6 -12 -11 -32 -10 -44 4
-42 0 -58 -12 -55 -15 3 -20 -6 -12 -26 9 -24 -15 -58 -37 -51 -10 4 -19 2
-19 -4 0 -8 -49 -25 -65 -21 -3 0 -13 -6 -21 -15 -11 -11 -26 -14 -50 -9 -24
4 -34 3 -34 -6 0 -7 -7 -18 -16 -25 -14 -10 -15 -19 -6 -61 15 -66 32 -277 24
-286 -4 -4 -17 -5 -28 -2 -20 5 -22 15 -28 157 -9 197 -8 187 -27 187 -9 0
-19 9 -22 20 -3 11 -10 20 -17 20 -6 0 -8 -4 -5 -10 4 -6 -7 -10 -27 -10 -45
0 -79 10 -72 21 3 5 -2 12 -10 15 -9 3 -16 12 -16 20 0 8 -4 14 -10 14 -11 0
-9 28 3 47 4 7 14 10 22 6 24 -9 17 19 -12 49 -21 22 -24 31 -15 40 7 7 12 20
12 30 0 11 5 15 15 12 11 -4 13 -2 9 9 -4 11 4 16 28 20 50 8 124 36 145 56
10 10 26 22 35 27 20 11 133 10 166 -1z m125 -528 c-10 -15 -10 -42 1 -80 10
-34 -6 -77 -29 -77 -9 0 -30 7 -47 16 -24 12 -36 13 -54 5 -20 -9 -25 -7 -36
12 -11 19 -37 86 -38 95 0 2 18 1 40 -3 24 -4 40 -3 40 3 0 5 18 12 40 16 23
3 38 10 35 15 -3 5 7 14 22 19 29 9 41 0 26 -21z m194 -39 c-3 -7 -5 -2 -5 12
0 14 2 19 5 13 2 -7 2 -19 0 -25z m-649 -20 c6 -6 12 -27 12 -48 0 -40 0 -40
-91 -56 -37 -7 -52 16 -47 70 4 35 1 46 -11 50 -9 3 16 3 54 0 39 -3 76 -11
83 -16z m322 -113 c0 -8 -4 -15 -9 -15 -5 0 -11 7 -15 15 -3 9 0 15 9 15 8 0
15 -7 15 -15z m-60 -190 c0 -16 -13 -21 -71 -24 -47 -2 -75 14 -44 26 10 3 20
0 25 -6 5 -10 9 -9 13 3 8 19 33 21 40 4 3 -9 7 -7 12 4 8 20 25 15 25 -7z
m120 0 c-7 -8 -18 -15 -24 -15 -6 0 -2 7 8 15 25 19 32 19 16 0z m-26 -49 c-6
-16 -24 -23 -24 -8 0 10 22 33 27 28 2 -2 1 -11 -3 -20z m-18 -61 c-2 -5 -9
-9 -15 -7 -6 1 -11 -7 -11 -17 0 -11 -5 -23 -12 -27 -8 -5 -9 0 -4 17 4 13 8
29 8 34 1 6 10 11 20 11 10 0 16 -5 14 -11z m-81 -15 c3 -5 -1 -10 -10 -10 -9
0 -13 5 -10 10 3 6 8 10 10 10 2 0 7 -4 10 -10z m365 -307 c6 -32 18 -71 26
-86 9 -15 13 -34 11 -41 -3 -8 -2 -17 2 -22 5 -5 11 -20 14 -34 6 -24 4 -26
-27 -26 l-33 0 -13 73 c-7 41 -10 76 -6 80 3 3 6 -7 7 -23 0 -16 4 -38 9 -49
9 -19 7 29 -5 143 -7 60 2 52 15 -15z m-756 -71 c3 -5 -1 -9 -9 -9 -8 0 -12 4
-9 9 3 4 7 8 9 8 2 0 6 -4 9 -8z m87 -19 l24 -28 -26 23 c-14 12 -29 19 -34
15 -4 -5 -5 -2 -1 5 9 16 9 16 37 -15z m2 -63 c10 -12 9 -12 -6 0 -16 12 -18
12 -15 -2 1 -9 -1 -16 -7 -15 -5 1 -9 8 -7 15 2 9 -1 11 -9 6 -7 -4 -10 -3 -6
4 9 13 34 10 50 -8z m48 -57 c13 -16 12 -17 -3 -4 -17 13 -22 21 -14 21 2 0
10 -8 17 -17z m-97 -1 c3 -5 -1 -9 -9 -9 -8 0 -12 4 -9 9 3 4 7 8 9 8 2 0 6
-4 9 -8z"/>
<path d="M850 1210 c0 -6 7 -10 15 -10 8 0 15 2 15 4 0 2 -7 6 -15 10 -8 3
-15 1 -15 -4z"/>
<path d="M907 83 c-3 -5 12 -25 33 -47 27 -28 39 -35 45 -26 5 8 4 11 -2 7
-12 -8 -66 57 -56 67 4 3 1 6 -5 6 -6 0 -13 -3 -15 -7z"/>
</g>
</svg>
